<?xml version="1.0" encoding="UTF-8" standalone="no"?>
<!-- Created with Inkscape (http://www.inkscape.org/) -->

<svg
   xmlns:dc="http://purl.org/dc/elements/1.1/"
   xmlns:cc="http://creativecommons.org/ns#"
   xmlns:rdf="http://www.w3.org/1999/02/22-rdf-syntax-ns#"
   xmlns:svg="http://www.w3.org/2000/svg"
   xmlns="http://www.w3.org/2000/svg"
   xmlns:sodipodi="http://sodipodi.sourceforge.net/DTD/sodipodi-0.dtd"
   xmlns:inkscape="http://www.inkscape.org/namespaces/inkscape"
   width="512"
   height="512"
   viewBox="0 0 135.46666 135.46667"
   version="1.1"
   id="svg8"
   inkscape:version="0.92.5 (2060ec1f9f, 2020-04-08)"
   sodipodi:docname="logo.svg">
  <defs
     id="defs2" />
  <sodipodi:namedview
     id="base"
     pagecolor="#ffffff"
     bordercolor="#666666"
     borderopacity="1.0"
     inkscape:pageopacity="0.0"
     inkscape:pageshadow="2"
     inkscape:zoom="0.98994949"
     inkscape:cx="193.91307"
     inkscape:cy="207.18017"
     inkscape:document-units="mm"
     inkscape:current-layer="layer1"
     showgrid="false"
     units="px"
     inkscape:window-width="1920"
     inkscape:window-height="1044"
     inkscape:window-x="2560"
     inkscape:window-y="1080"
     inkscape:window-maximized="1" />
  <metadata
     id="metadata5">
    <rdf:RDF>
      <cc:Work
         rdf:about="">
        <dc:format>image/svg+xml</dc:format>
        <dc:type
           rdf:resource="http://purl.org/dc/dcmitype/StillImage" />
        <dc:title />
      </cc:Work>
    </rdf:RDF>
  </metadata>
  <g
     inkscape:label="Layer 1"
     inkscape:groupmode="layer"
     id="layer1"
     transform="translate(0,-161.53332)">
    <path
       style="fill:#6495ed;stroke-width:0.43842348;fill-opacity:1"
       d="m 58.04783,285.04197 c -9.889235,-1.77675 -17.396195,-4.95705 -24.66711,-10.45012 -10.972512,-8.28959 -18.6007,-20.67323 -20.909247,-33.9442 -0.982836,-5.64994 -0.890092,-14.6536 0.206367,-20.03402 4.458498,-21.87823 21.046847,-38.46658 42.92507,-42.92508 5.380438,-1.09646 14.384097,-1.18922 20.034035,-0.20638 21.56223,3.75088 38.937795,20.53216 43.785775,42.2882 1.13311,5.08502 1.36095,14.75446 0.47118,19.9964 -1.90554,11.22612 -7.07326,21.45463 -14.71351,29.12258 -9.161065,9.19429 -18.367865,13.95481 -31.320233,16.19468 -3.106192,0.53714 -12.731006,0.51156 -15.812327,-0.0421 z m 15.034483,-33.95575 c 4.074832,-0.83089 9.589242,-3.01032 13.995492,-5.53138 3.81303,-2.18165 11.08409,-7.94115 14.799635,-11.72295 l 2.6178,-2.66449 -3.05622,-3.10225 C 91.415815,217.89103 80.032025,211.64147 69.704068,210.64306 c -9.670813,-0.93488 -19.378877,2.07481 -29.193181,9.05045 -3.439505,2.44469 -8.947601,7.30822 -11.205674,9.89438 l -1.490171,1.7067 4.408936,4.21203 c 8.668226,8.28104 17.905418,13.6849 26.700688,15.62015 3.639708,0.80084 10.122289,0.78228 14.157647,-0.0406 z m -11.965524,-5.21976 c -3.217147,-0.59603 -7.48739,-2.08083 -10.770719,-3.74508 -3.061643,-1.55186 -9.132916,-5.85179 -12.199654,-8.6403 l -2.802889,-2.5486 4.481166,-3.66403 c 11.958622,-9.77796 22.875558,-13.12764 33.787174,-10.36705 6.143698,1.55433 14.777708,6.58727 20.755338,12.09873 l 2.26189,2.08547 -1.09606,1.20121 c -1.6068,1.76092 -9.22604,7.37365 -12.47982,9.19325 -3.64403,2.03787 -9.374967,4.02495 -13.204919,4.57853 -3.771077,0.54507 -4.884836,0.52056 -8.731507,-0.19213 z m 10.453381,-2.36477 c 2.793858,-1.26519 5.368305,-3.7646 6.716985,-6.5212 1.63115,-3.33394 1.72159,-7.98245 0.22053,-11.33473 -2.78391,-6.21729 -9.808177,-9.3782 -16.510613,-7.42974 -3.47306,1.00965 -7.595429,5.02008 -8.755916,8.51816 -2.483081,7.48481 2.033744,15.64159 9.732124,17.57495 2.275604,0.5715 6.409191,0.18325 8.59689,-0.80744 z m -8.480483,-4.90836 c -1.417129,-0.59405 -3.418279,-2.50012 -4.20416,-4.00441 -0.961146,-1.8398 -0.774001,-5.53081 0.384117,-7.57564 1.333531,-2.35455 3.82271,-3.71906 6.801179,-3.72831 7.754321,-0.024 10.905982,9.29972 4.794163,14.18288 -1.325875,1.05933 -2.145726,1.34513 -4.16502,1.45195 -1.382828,0.0731 -3.007434,-0.0737 -3.610279,-0.32647 z"
       id="path21"
       inkscape:connector-curvature="0"
       sodipodi:nodetypes="ccsssssssccccscccsccccccccccccscccccccccssscccacccc" />
  </g>
</svg>
